# xmcd
#
# Track frame offsets: 
#        150
#        7181
#        18218
#        36749
#        43421
#        52995
#        65474
#        75477
#        99944
#        107817
#        115106
#        126223
#        140721
#        150190
#        155386
#        164149
#        170878
#        192686
#        209591
#        222847
#
# Disc length: 3080 seconds
#
# Revision: 2
# Processed by: cddbd v1.5.2PL0 Copyright (c) Steve Scherf et al.
# Submitted via: ExactAudioCopy v0.95b4
#
DISCID=260c0614
DTITLE=Irish Folk Festival - 2007 Irish Folk Festival [CD 1)
DYEAR=2007
DGENRE=Celtic
TTITLE0=The Celtic Harp Players - Scaborough Fair
TTITLE1=The Celtic Harp Players -  Greensleeves
TTITLE2=The Gardyne Chamber Ensemble - Planxty Irwin
TTITLE3=The Celtic Fiddle Players - An Buachail Coal Dubh
TTITLE4=The Celtic Harp Players - The Willow Three
TTITLE5=The Celtic Harp Players - Mary Young And Fair
TTITLE6=Teh Celtic Harp Players - All Through The Night
TTITLE7=The Gardyne Chamber Ensemble - The Lonesome Boatman
TTITLE8=The Celtic Fiddle Players - Baidin Fheilimi
TTITLE9=Teh Celtic Harp Players - My Love Is Like A Rose
TTITLE10=Teh Celtic Harp Players - The Queen's March
TTITLE11=The Celtic Fiddle Players - Londonderry Air (Danny Boy)
TTITLE12=The Celtic Harp Players - The Froggy Dew
TTITLE13=The Celtic Harp Players - Gather Ye Rosebuds
TTITLE14=The Celtic Harp Players - Harp Of Gold
TTITLE15=The Celtic Fiddle Players - Pleacara Na Ruarcach
TTITLE16=The Gardyne Chamber Ensemble - Women Of Ireland
TTITLE17=The Celtic Harp Players - The Last Rose Of Summer
TTITLE18=The Gardyne Chamber Ensemble - Avondale
TTITLE19=The Celtic Harp Players - Drink To Me Only With Thine Eyes
EXTD=
EXTT0=
EXTT1=
EXTT2=
EXTT3=
EXTT4=
EXTT5=
EXTT6=
EXTT7=
EXTT8=
EXTT9=
EXTT10=
EXTT11=
EXTT12=
EXTT13=
EXTT14=
EXTT15=
EXTT16=
EXTT17=
EXTT18=
EXTT19=
PLAYORDER=
